# xmcd
#
# Track frame offsets:
# 150
# 23754
# 41628
# 60191
# 72593
# 85360
# 98127
# 112572
# 123193
# 136220
# 147832
# 164716
# 176098
# 187910
# 198570
# 215297
# 227982
# 239484
# 248731
# 261520
#
# Disc length: 3700 seconds
#
#
# Revision: 1
# Processed by: cddbd v1.5.1PL0 Copyright (c) Steve Scherf et al.
# Submitted via: FreeRIP 2.90 
#
DISCID=1d0e7214
DTITLE=Soul Sensation Vol. 2 - Solid Gold Soul Vol. 2
DYEAR=1999
DGENRE=Soul
TTITLE0=The three Degrees/A woman in love (live)
TTITLE1=Brook Benton/Rainy night in Georgia
TTITLE2=Freda Payne/Band of gold
TTITLE3=Jerry Butler&Betty Everett/Let it be
TTITLE4=Al Jarreau/Ain't no sunshine
TTITLE5=Gladys Knight&the Pips/Letters full of tears
TTITLE6=Percy Sledge/Warm&tender love
TTITLE7=The Whispers/Needle in a haystack
TTITLE8=Sam&Dave/I thank you
TTITLE9=Jerry Butler/Make it easy on yourself
TTITLE10=Sam&Dave/Hold on I'm coming
TTITLE11=Gene Chandler/Duke of earl
TTITLE12=The Drifters/Under the boardwalk
TTITLE13=James Brown/Papa's got a brand new bag (live)
TTITLE14=Dee Clark/Portrait of my love
TTITLE15=Jerry Butler/The challenge
TTITLE16=The Drifters/Up on the roof
TTITLE17=Gladys Knight&the Pips/Every beat of my heart
TTITLE18=Percy Sledge/I've been loving you too long
TTITLE19=Eddie Floyd/I've never found a girl to love me like you do
EXTD=
EXTT0=
EXTT1=
EXTT2=
EXTT3=
EXTT4=
EXTT5=
EXTT6=
EXTT7=
EXTT8=
EXTT9=
EXTT10=
EXTT11=
EXTT12=
EXTT13=
EXTT14=
EXTT15=
EXTT16=
EXTT17=
EXTT18=
EXTT19=
PLAYORDER=
